<svg width="18" height="15" viewBox="0 0 18 15" fill="none" xmlns="http://www.w3.org/2000/svg">
<path d="M14.4 1.875V9.375H3.6V1.875H14.4ZM14.85 0H3.15C2.40469 0 1.8 0.629883 1.8 1.40625V9.84375C1.8 10.6201 2.40469 11.25 3.15 11.25H14.85C15.5953 11.25 16.2 10.6201 16.2 9.84375V1.40625C16.2 0.629883 15.5953 0 14.85 0ZM17.6625 12.1875H10.9547C10.8703 12.1875 10.8 12.249 10.7887 12.3369C10.7212 12.7822 10.35 13.125 9.9 13.125H8.1C7.65 13.125 7.27875 12.7822 7.21125 12.3369C7.19719 12.252 7.12687 12.1875 7.04531 12.1875H0.3375C0.151875 12.1875 0 12.3457 0 12.5391V13.5938C0 14.3701 0.604688 15 1.35 15H16.65C17.3953 15 18 14.3701 18 13.5938V12.5391C18 12.3457 17.8481 12.1875 17.6625 12.1875Z" fill="#162668"/>
</svg>
