<svg width="18" height="18" viewBox="0 0 18 18" fill="none" xmlns="http://www.w3.org/2000/svg">
<path d="M15.2497 11.2729V17.035C15.2497 17.5698 14.9153 18 14.4996 18H10.8743C10.668 18 10.4992 17.7829 10.4992 17.5175V13.014C10.4992 12.7486 10.3305 12.5314 10.1242 12.5314H7.87395C7.66768 12.5314 7.49892 12.7486 7.49892 13.014V17.5175C7.49892 17.7829 7.33015 18 7.12388 18H3.49851C3.08284 18 2.74843 17.5698 2.74843 17.035V11.2729C2.74843 11.1281 2.79843 10.9914 2.88594 10.8989L8.76155 4.67441C8.89906 4.52966 9.09908 4.52966 9.23972 4.67441L15.1153 10.8989C15.1997 10.9914 15.2497 11.1281 15.2497 11.2729ZM17.8625 8.82408L15.2497 6.05361V0.48453C15.2497 0.219144 15.0809 0.00201056 14.8747 0.00201056H13.1245C12.9182 0.00201056 12.7495 0.219144 12.7495 0.48453V3.40378L9.95229 0.440299C9.39911 -0.146767 8.59903 -0.146767 8.04585 0.440299L0.135661 8.82408C-0.0237303 8.99296 -0.0456075 9.29856 0.0856559 9.50363L0.882613 10.7501C1.01388 10.9552 1.2514 10.9834 1.41079 10.8145L8.76155 3.0258C8.89906 2.88105 9.09908 2.88105 9.23972 3.0258L16.5905 10.8145C16.7499 10.9834 16.9874 10.9552 17.1187 10.7501L17.9156 9.50363C18.0469 9.29454 18.0219 8.99296 17.8625 8.82408Z" fill="#162668"/>
</svg>
