<svg width="20" height="14" viewBox="0 0 20 14" fill="none" xmlns="http://www.w3.org/2000/svg">
<path d="M10 0.555664C11.8122 0.555664 13.2812 2.18796 13.2812 4.2015C13.2812 6.21504 11.8122 7.84733 10 7.84733C8.18781 7.84733 6.71875 6.21504 6.71875 4.2015C6.71875 2.18796 8.18781 0.555664 10 0.555664ZM13.5457 8.1031L12.2963 7.75601C10.7598 8.98396 8.89734 8.70994 7.70375 7.75601L6.45431 8.1031C5.45266 8.38132 4.75 9.38126 4.75 10.5284V12.639C4.75 13.3293 5.25369 13.889 5.875 13.889H14.125C14.7463 13.889 15.25 13.3293 15.25 12.639V10.5284C15.25 9.38126 14.5473 8.38132 13.5457 8.1031ZM16.5 8.75011C17.7081 8.75011 18.6875 7.66191 18.6875 6.31955C18.6875 4.97719 17.7081 3.889 16.5 3.889C15.2919 3.889 14.3125 4.97719 14.3125 6.31955C14.3125 7.66191 15.2919 8.75011 16.5 8.75011ZM3.5 8.75011C4.70813 8.75011 5.6875 7.66191 5.6875 6.31955C5.6875 4.97719 4.70813 3.889 3.5 3.889C2.29187 3.889 1.3125 4.97719 1.3125 6.31955C1.3125 7.66191 2.29187 8.75011 3.5 8.75011ZM4.25 12.639V10.5284C4.25 9.95375 4.39353 9.41025 4.64697 8.94514C3.70984 9.45625 2.66772 9.24751 1.96916 8.68924L1.13619 8.92063C0.468438 9.10608 0 9.77275 0 10.5375V11.9446C0 12.4048 0.335781 12.7779 0.75 12.7779H4.25528C4.25193 12.7317 4.25017 12.6854 4.25 12.639ZM18.8638 8.9206L18.0308 8.68921C17.1582 9.38664 16.128 9.35702 15.35 8.93983C15.6053 9.40612 15.75 9.95153 15.75 10.5284V12.639C15.75 12.6858 15.7479 12.732 15.7447 12.7779H19.25C19.6642 12.7779 20 12.4048 20 11.9446V10.5375C20 9.77275 19.5316 9.10608 18.8638 8.9206Z" fill="#162668"/>
</svg>
