<svg width="9" height="18" viewBox="0 0 9 18" fill="none" xmlns="http://www.w3.org/2000/svg">
<path d="M4.43038 0C6.06159 0 7.38397 1.00737 7.38397 2.25C7.38397 3.49263 6.06159 4.5 4.43038 4.5C2.79917 4.5 1.47679 3.49263 1.47679 2.25C1.47679 1.00737 2.79917 0 4.43038 0ZM6.64557 5.0625H6.12131C5.0732 5.42964 3.83274 5.44549 2.73945 5.0625H2.21519C0.991759 5.0625 0 5.81801 0 6.75V11.5312C0 11.9972 0.495879 12.375 1.10759 12.375H1.84599V17.1562C1.84599 17.6222 2.34187 18 2.95359 18H5.90717C6.51889 18 7.01477 17.6222 7.01477 17.1562V12.375H7.75316C8.36488 12.375 8.86076 11.9972 8.86076 11.5312V6.75C8.86076 5.81801 7.869 5.0625 6.64557 5.0625Z" fill="#162668"/>
</svg>
