<svg width="18" height="16" viewBox="0 0 18 16" fill="none" xmlns="http://www.w3.org/2000/svg">
  <path d="M17.6147 13.833L14.1427 10.7177C13.986 10.5771 13.7736 10.499 13.5507 10.499H12.9831C13.9442 9.39596 14.5153 8.00859 14.5153 6.49937C14.5153 2.90909 11.2732 0 7.27195 0C3.27068 0 0.0285645 2.90909 0.0285645 6.49937C0.0285645 10.0896 3.27068 12.9987 7.27195 12.9987C8.95395 12.9987 10.5001 12.4863 11.7294 11.6239V12.1332C11.7294 12.3332 11.8165 12.5238 11.9732 12.6644L15.4451 15.7797C15.7725 16.0734 16.3018 16.0734 16.6257 15.7797L17.6112 14.8954C17.9385 14.6017 17.9385 14.1267 17.6147 13.833ZM7.27195 10.499C4.8099 10.499 2.81448 8.71165 2.81448 6.49937C2.81448 4.29021 4.80641 2.49976 7.27195 2.49976C9.73401 2.49976 11.7294 4.28708 11.7294 6.49937C11.7294 8.70852 9.73749 10.499 7.27195 10.499Z" fill="#EDEDED"/>
</svg>
